<svg id="Icons" height="512" viewBox="0 0 74 74" width="512" xmlns="http://www.w3.org/2000/svg">
    <path style="fill:#fff"
        d="m42.767 53.119h-11.534a3.125 3.125 0 0 1 -3.084-2.595l-3.97-22.9a7.4 7.4 0 0 1 7.294-8.668h11.054a7.4 7.4 0 0 1 7.294 8.668l-3.97 22.9a3.125 3.125 0 0 1 -3.084 2.595zm-11.294-32.161a5.4 5.4 0 0 0 -5.324 6.326l3.971 22.9a1.128 1.128 0 0 0 1.113.937h11.534a1.128 1.128 0 0 0 1.113-.937l3.971-22.9a5.4 5.4 0 0 0 -5.324-6.326z" />
    <path style="fill:#fff"
        d="m54.924 52.625a4.64 4.64 0 0 1 -1.26-.174l-8.835-2.487a1 1 0 1 1 .541-1.924l8.835 2.486a2.716 2.716 0 0 0 3.272-1.673l4.666-12.753a3.863 3.863 0 0 0 -2.728-5.085l-10.815-2.587a1 1 0 1 1 .466-1.946l10.813 2.592a5.863 5.863 0 0 1 4.139 7.718l-4.663 12.748a4.729 4.729 0 0 1 -4.431 3.085z" />
    <path style="fill:#fff"
        d="m69.4 55.042a.992.992 0 0 1 -.4-.085l-10.987-4.846a1 1 0 1 1 .806-1.83l10.039 4.43.692-1.7a6.107 6.107 0 0 0 -2.723-7.654l-5.357-2.939a1 1 0 1 1 .961-1.753l5.357 2.935a8.107 8.107 0 0 1 3.612 10.162l-1.079 2.656a1 1 0 0 1 -.927.624z" />
    <path style="fill:#fff"
        d="m19.076 52.625a4.728 4.728 0 0 1 -4.431-3.085l-4.666-12.748a5.863 5.863 0 0 1 4.139-7.718l10.813-2.592a1 1 0 1 1 .466 1.946l-10.812 2.591a3.863 3.863 0 0 0 -2.728 5.081l4.666 12.749a2.716 2.716 0 0 0 3.277 1.677l8.83-2.486a1 1 0 1 1 .541 1.924l-8.835 2.487a4.635 4.635 0 0 1 -1.26.174z" />
    <path style="fill:#fff"
        d="m4.6 55.042a1 1 0 0 1 -.927-.624l-1.073-2.656a8.107 8.107 0 0 1 3.612-10.162l5.357-2.937a1 1 0 1 1 .961 1.753l-5.357 2.939a6.107 6.107 0 0 0 -2.723 7.654l.692 1.7 10.039-4.43a1 1 0 1 1 .806 1.83l-10.981 4.848a.992.992 0 0 1 -.406.085z" />
    </svg>